#!OML:ASF H:\GeneralSubjects\Female5\Project 1\Capture day 1\Session 1\Female5.ASF
:FULLY-SPECIFIED
:DEGREES
206
root -24.178 15.113 5.07518 0.844266 86.2643 -37.1007
lowerback 18.3412 0.728606 2.19452
upperback -7.96631 1.82678 0.799551
thorax -19.8632 0.622262 -0.942961
lowerneck -21.502 -1.10856 -0.0382248
upperneck 24.2442 -1.13277 -0.781861
head 11.4628 -0.547358 -0.448812
rclavicle 7.95139e-015 3.97569e-016
rhumerus -69.9636 9.90551 -73.3027
rradius 6.81083
rwrist 1.48679
rhand -26.9139 -29.555
rfingers 7.12502
rthumb -0.336914 -59.5345
lclavicle 7.95139e-015 3.97569e-016
lhumerus -66.6983 7.709 38.9685
lradius 18.2812
lwrist -36.305
lhand -30.1711 37.786
lfingers 7.12502
lthumb -3.4827 67.7373
rfemur -51.281 9.70659 31.66
rtibia 37.5415
rfoot -16.7629 -14.5841
rtoes -35.4687
lfemur -55.9044 -10.5488 -23.7047
ltibia 48.88
lfoot -19.9842 -9.38851
ltoes -39.8189
207
root -24.1047 14.9256 5.08253 1.94679 86.4673 -36.1976
lowerback 19.0153 0.709973 2.1708
upperback -8.50314 1.82912 0.749203
thorax -20.4158 0.597031 -1.05526
lowerneck -21.9133 -1.32116 -0.268763
upperneck 24.3067 -1.37616 -0.710693
head 11.5676 -0.670817 -0.426836
rclavicle -2.08724e-015 -1.90833e-014
rhumerus -66.6804 10.1694 -74.1517
rradius 11.635
rwrist 4.58246
rhand -24.4325 -27.2224
rfingers 7.12502
rthumb 2.05967 -57.1922
lclavicle -2.08724e-015 -1.90833e-014
lhumerus -61.6034 6.22142 49.484
lradius 19.1929
lwrist -30.5746
lhand -29.383 37.4295
lfingers 7.12502
lthumb -2.72163 67.3919
rfemur -52.5223 10.146 31.4154
rtibia 40.2137
rfoot -18.1634 -14.7664
rtoes -36.8459
lfemur -57.2259 -10.5057 -24.0785
ltibia 51.6921
lfoot -19.9639 -10.4498
ltoes -39.818
208
root -24.0203 14.7627 5.08685 2.29256 86.6191 -35.7712
lowerback 19.6882 0.708543 2.19484
upperback -8.70815 1.8565 0.697022
thorax -21.0997 0.586092 -1.15742
lowerneck -22.2716 -1.42336 -0.5328
upperneck 24.0917 -1.5125 -0.455136
head 11.5592 -0.728072 -0.312657
rclavicle 5.26779e-015 3.83654e-014
rhumerus -65.0782 16.4364 -85.8624
rradius 16.9385
rwrist -3.55604
rhand -24.4631 -26.9037
rfingers 7.12502
rthumb 2.03013 -56.8738
lclavicle 5.26779e-015 3.83654e-014
lhumerus -55.7482 2.86088 59.9791
lradius 20.8012
lwrist -24.7949
lhand -28.7509 37.1207
lfingers 7.12502
lthumb -2.11113 67.09
rfemur -53.094 10.4032 31.359
rtibia 42.474
rfoot -19.5693 -14.9351
rtoes -38.1945
lfemur -57.8807 -10.4594 -24.4686
ltibia 54.082
lfoot -20.1492 -11.5455
ltoes -39.9411
209
root -23.9255 14.6291 5.08812 1.57946 86.7196 -36.1547
lowerback 20.2059 0.71838 2.22116
upperback -8.81359 1.89854 0.689449
thorax -21.561 0.588837 -1.21076
lowerneck -22.6185 -1.51501 -0.76489
upperneck 23.9085 -1.62536 -0.255098
head 11.5604 -0.778082 -0.220852
rclavicle -6.36111e-015 -3.00165e-014
rhumerus -62.1417 22.1789 -92.1509
rradius 22.5771
rwrist -6.46275
rhand -25.1106 -26.1142
rfingers 7.12502
rthumb 1.40476 -56.0893
lclavicle -6.36111e-015 -3.00165e-014
lhumerus -49.7128 -2.14362 69.2296
lradius 23.6149
lwrist -19.2037
lhand -28.5132 37.2732
lfingers 7.12502
lthumb -1.88155 67.2446
rfemur -53.1355 10.4509 31.4985
rtibia 44.4285
rfoot -20.946 -14.9755
rtoes -39.0081
lfemur -57.9806 -10.395 -24.8375
ltibia 56.1107
lfoot -20.4487 -12.5559
ltoes -40.2387
